<?xml version="1.0" encoding="UTF-8" standalone="no"?>
<svg
   width="432.00pt"
   height="288.00pt"
   viewBox="0 0 432.00 288.00"
   version="1.1"
   id="svg26"
   sodipodi:docname="heterozygosity_populations.svg"
   inkscape:version="1.4.2 (f4327f4, 2025-05-13)"
   xmlns:inkscape="http://www.inkscape.org/namespaces/inkscape"
   xmlns:sodipodi="http://sodipodi.sourceforge.net/DTD/sodipodi-0.dtd"
   xmlns="http://www.w3.org/2000/svg"
   xmlns:svg="http://www.w3.org/2000/svg">
  <defs
     id="defs26" />
  <sodipodi:namedview
     id="namedview26"
     pagecolor="#ffffff"
     bordercolor="#000000"
     borderopacity="0.25"
     inkscape:showpageshadow="2"
     inkscape:pageopacity="0.0"
     inkscape:pagecheckerboard="0"
     inkscape:deskcolor="#d1d1d1"
     inkscape:document-units="pt"
     inkscape:zoom="2.9278642"
     inkscape:cx="277.50604"
     inkscape:cy="163.08817"
     inkscape:window-width="1920"
     inkscape:window-height="991"
     inkscape:window-x="-9"
     inkscape:window-y="-9"
     inkscape:window-maximized="1"
     inkscape:current-layer="g25" />
  <g
     class="svglite"
     id="g26">
    <defs
       id="defs1">
      <style
         type="text/css"
         id="style1"><![CDATA[
    .svglite line, .svglite polyline, .svglite polygon, .svglite path, .svglite rect, .svglite circle {
      fill: none;
      stroke: #000000;
      stroke-linecap: round;
      stroke-linejoin: round;
      stroke-miterlimit: 10.00;
    }
    .svglite text {
      white-space: pre;
    }
    .svglite g.glyphgroup path {
      fill: inherit;
      stroke: none;
    }
  ]]></style>
    </defs>
    <rect
       width="100%"
       height="100%"
       style="stroke: none; fill: #FFFFFF;"
       id="rect1" />
    <defs
       id="defs2">
      <clipPath
         id="cpMC4wMHw0MzIuMDB8MC4wMHwyODguMDA=">
        <rect
           x="0.00"
           y="0.00"
           width="432.00"
           height="288.00"
           id="rect2" />
      </clipPath>
    </defs>
    <g
       clip-path="url(#cpMC4wMHw0MzIuMDB8MC4wMHwyODguMDA=)"
       id="g3">
      <rect
         x="0.00"
         y="0.00"
         width="432.00"
         height="288.00"
         style="stroke-width: 1.36; stroke: none; fill: #FFFFFF;"
         id="rect3" />
    </g>
    <defs
       id="defs4">
      <clipPath
         id="cpNTEuNDd8NDI1LjAzfDYuOTd8MjQ3Ljkz">
        <rect
           x="51.47"
           y="6.97"
           width="373.56"
           height="240.95"
           id="rect4" />
      </clipPath>
    </defs>
    <g
       clip-path="url(#cpNTEuNDd8NDI1LjAzfDYuOTd8MjQ3Ljkz)"
       id="g17">
      <polyline
         points="51.47,223.87 425.03,223.87 "
         style="stroke-width: 0.68; stroke: #EBEBEB; stroke-linecap: butt;"
         id="polyline4" />
      <polyline
         points="51.47,172.25 425.03,172.25 "
         style="stroke-width: 0.68; stroke: #EBEBEB; stroke-linecap: butt;"
         id="polyline5" />
      <polyline
         points="51.47,120.63 425.03,120.63 "
         style="stroke-width: 0.68; stroke: #EBEBEB; stroke-linecap: butt;"
         id="polyline6" />
      <polyline
         points="51.47,69.00 425.03,69.00 "
         style="stroke-width: 0.68; stroke: #EBEBEB; stroke-linecap: butt;"
         id="polyline7" />
      <polyline
         points="51.47,17.38 425.03,17.38 "
         style="stroke-width: 0.68; stroke: #EBEBEB; stroke-linecap: butt;"
         id="polyline8" />
      <polyline
         points="51.47,198.06 425.03,198.06 "
         style="stroke-width: 1.36; stroke: #EBEBEB; stroke-linecap: butt;"
         id="polyline9" />
      <polyline
         points="51.47,146.44 425.03,146.44 "
         style="stroke-width: 1.36; stroke: #EBEBEB; stroke-linecap: butt;"
         id="polyline10" />
      <polyline
         points="51.47,94.81 425.03,94.81 "
         style="stroke-width: 1.36; stroke: #EBEBEB; stroke-linecap: butt;"
         id="polyline11" />
      <polyline
         points="51.47,43.19 425.03,43.19 "
         style="stroke-width: 1.36; stroke: #EBEBEB; stroke-linecap: butt;"
         id="polyline12" />
      <polyline
         points="121.51,247.93 121.51,6.97 "
         style="stroke-width: 1.36; stroke: #EBEBEB; stroke-linecap: butt;"
         id="polyline13" />
      <polyline
         points="238.25,247.93 238.25,6.97 "
         style="stroke-width: 1.36; stroke: #EBEBEB; stroke-linecap: butt;"
         id="polyline14" />
      <polyline
         points="354.98,247.93 354.98,6.97 "
         style="stroke-width: 1.36; stroke: #EBEBEB; stroke-linecap: butt;"
         id="polyline15" />
      <polygon
         points="121.50,98.14 121.50,97.99 121.50,97.83 121.50,97.67 121.49,97.52 121.49,97.36 121.49,97.20 121.49,97.05 121.48,96.89 121.48,96.73 121.48,96.57 121.47,96.42 121.47,96.26 121.46,96.10 121.46,95.95 121.45,95.79 121.45,95.63 121.44,95.48 121.43,95.32 121.42,95.16 121.41,95.01 121.40,94.85 121.39,94.69 121.38,94.53 121.37,94.38 121.36,94.22 121.35,94.06 121.33,93.91 121.32,93.75 121.30,93.59 121.28,93.44 121.26,93.28 121.24,93.12 121.22,92.96 121.20,92.81 121.17,92.65 121.15,92.49 121.12,92.34 121.09,92.18 121.06,92.02 121.03,91.87 121.00,91.71 120.97,91.55 120.93,91.39 120.89,91.24 120.85,91.08 120.81,90.92 120.77,90.77 120.72,90.61 120.67,90.45 120.62,90.30 120.57,90.14 120.52,89.98 120.46,89.82 120.40,89.67 120.34,89.51 120.27,89.35 120.21,89.20 120.14,89.04 120.06,88.88 119.99,88.73 119.90,88.57 119.82,88.41 119.73,88.25 119.64,88.10 119.54,87.94 119.44,87.78 119.34,87.63 119.23,87.47 119.11,87.31 118.99,87.16 118.86,87.00 118.73,86.84 118.59,86.68 118.45,86.53 118.29,86.37 118.13,86.21 117.97,86.06 117.79,85.90 117.61,85.74 117.42,85.59 117.22,85.43 117.01,85.27 116.79,85.12 116.57,84.96 116.33,84.80 116.08,84.64 115.83,84.49 115.56,84.33 115.28,84.17 114.99,84.02 114.70,83.86 114.39,83.70 114.06,83.55 113.73,83.39 113.39,83.23 113.03,83.07 112.66,82.92 112.29,82.76 111.90,82.60 111.49,82.45 111.08,82.29 110.66,82.13 110.22,81.98 109.78,81.82 109.32,81.66 108.86,81.50 108.38,81.35 107.89,81.19 107.40,81.03 106.89,80.88 106.38,80.72 105.86,80.56 105.33,80.41 104.79,80.25 104.25,80.09 103.70,79.93 103.14,79.78 102.58,79.62 102.01,79.46 101.44,79.31 100.86,79.15 100.28,78.99 99.70,78.84 99.12,78.68 98.53,78.52 97.95,78.36 97.36,78.21 96.77,78.05 96.19,77.89 95.61,77.74 95.02,77.58 94.45,77.42 93.87,77.27 93.30,77.11 92.73,76.95 92.17,76.80 91.62,76.64 91.06,76.48 90.52,76.32 89.98,76.17 89.45,76.01 88.92,75.85 88.41,75.70 87.90,75.54 87.39,75.38 86.90,75.23 86.41,75.07 85.93,74.91 85.46,74.75 85.00,74.60 84.55,74.44 84.10,74.28 83.66,74.13 83.23,73.97 82.80,73.81 82.38,73.66 81.97,73.50 81.57,73.34 81.17,73.18 80.77,73.03 80.39,72.87 80.01,72.71 79.63,72.56 79.26,72.40 78.89,72.24 78.52,72.09 78.16,71.93 77.81,71.77 77.46,71.61 77.11,71.46 76.76,71.30 76.42,71.14 76.08,70.99 75.74,70.83 75.41,70.67 75.08,70.52 74.75,70.36 74.43,70.20 74.11,70.04 73.80,69.89 73.49,69.73 73.19,69.57 72.89,69.42 72.60,69.26 72.31,69.10 72.24,69.06 72.03,68.95 71.76,68.79 71.50,68.63 71.25,68.47 71.00,68.32 70.77,68.16 70.55,68.00 70.34,67.85 70.14,67.69 69.96,67.53 69.79,67.38 69.63,67.22 69.49,67.06 69.37,66.91 69.26,66.75 69.17,66.59 69.10,66.43 69.04,66.28 69.00,66.12 68.98,65.96 68.98,65.81 69.00,65.65 69.03,65.49 69.09,65.34 69.17,65.18 69.26,65.02 69.38,64.86 69.51,64.71 69.66,64.55 69.83,64.39 70.02,64.24 70.22,64.08 70.44,63.92 70.68,63.77 70.93,63.61 71.20,63.45 71.48,63.29 71.77,63.14 72.06,62.99 72.08,62.98 72.40,62.82 72.73,62.67 73.07,62.51 73.42,62.35 73.78,62.20 74.14,62.04 74.51,61.88 74.89,61.72 75.27,61.57 75.65,61.41 76.04,61.25 76.42,61.10 76.81,60.94 77.20,60.78 77.58,60.63 77.96,60.47 78.34,60.31 78.72,60.15 79.09,60.00 79.46,59.84 79.82,59.68 80.17,59.53 80.51,59.37 80.85,59.21 81.18,59.06 81.49,58.90 81.80,58.74 82.10,58.58 82.38,58.43 82.66,58.27 82.92,58.11 83.17,57.96 83.41,57.80 83.64,57.64 83.85,57.49 84.05,57.33 84.24,57.17 84.42,57.02 84.58,56.86 84.73,56.70 84.87,56.54 84.99,56.39 85.11,56.23 85.21,56.07 85.30,55.92 85.39,55.76 85.46,55.60 85.52,55.45 85.57,55.29 85.62,55.13 85.65,54.97 85.68,54.82 85.71,54.66 85.73,54.50 85.74,54.35 85.76,54.19 85.77,54.03 85.77,53.88 85.78,53.72 85.79,53.56 85.80,53.40 85.81,53.25 85.83,53.09 85.85,52.93 85.87,52.78 85.90,52.62 85.94,52.46 85.98,52.31 86.03,52.15 86.09,51.99 86.15,51.83 86.23,51.68 86.27,51.60 86.32,51.52 86.41,51.36 86.51,51.21 86.63,51.05 86.76,50.89 86.89,50.74 87.03,50.58 87.19,50.42 87.35,50.26 87.53,50.11 87.71,49.95 87.90,49.79 88.10,49.64 88.31,49.48 88.53,49.32 88.75,49.17 88.98,49.01 89.21,48.85 89.45,48.70 89.69,48.54 89.94,48.38 90.19,48.22 90.44,48.07 90.70,47.91 90.95,47.75 91.21,47.60 91.47,47.44 91.73,47.28 91.99,47.13 92.26,46.97 92.52,46.81 92.78,46.65 93.04,46.50 93.30,46.34 93.56,46.18 93.81,46.03 94.07,45.87 94.33,45.71 94.58,45.56 94.84,45.40 95.10,45.24 95.35,45.08 95.61,44.93 95.87,44.77 96.13,44.61 96.39,44.46 96.65,44.30 96.91,44.14 97.18,43.99 97.44,43.83 97.71,43.67 97.98,43.51 98.26,43.36 98.53,43.20 98.81,43.04 99.10,42.89 99.38,42.73 99.67,42.57 99.97,42.42 100.26,42.26 100.56,42.10 100.87,41.94 101.17,41.79 101.48,41.63 101.79,41.47 102.11,41.32 102.43,41.16 102.75,41.00 103.07,40.85 103.39,40.69 103.72,40.53 104.05,40.37 104.38,40.22 104.71,40.06 105.04,39.90 105.37,39.75 105.70,39.59 106.03,39.43 106.36,39.28 106.68,39.12 107.01,38.96 107.34,38.81 107.66,38.65 107.98,38.49 108.30,38.33 108.62,38.18 108.93,38.02 109.24,37.86 109.55,37.71 109.85,37.55 110.15,37.39 110.44,37.24 110.74,37.08 111.02,36.92 111.30,36.76 111.58,36.61 111.85,36.45 112.12,36.29 112.38,36.14 112.63,35.98 112.88,35.82 113.13,35.67 113.37,35.51 113.60,35.35 113.83,35.19 114.05,35.04 114.26,34.88 114.47,34.72 114.68,34.57 114.88,34.41 115.07,34.25 115.26,34.10 115.44,33.94 115.61,33.78 115.78,33.62 115.95,33.47 116.11,33.31 116.26,33.15 116.41,33.00 116.56,32.84 116.70,32.68 116.84,32.53 116.97,32.37 117.10,32.21 117.22,32.05 117.34,31.90 117.46,31.74 117.57,31.58 117.68,31.43 117.78,31.27 117.89,31.11 117.99,30.96 118.09,30.80 118.18,30.64 118.28,30.48 118.37,30.33 118.46,30.17 118.55,30.01 118.63,29.86 118.72,29.70 118.80,29.54 118.88,29.39 118.96,29.23 119.04,29.07 119.12,28.92 119.20,28.76 119.27,28.60 119.35,28.44 119.42,28.29 119.50,28.13 119.57,27.97 119.64,27.82 119.71,27.66 119.78,27.50 119.85,27.35 119.91,27.19 119.98,27.03 120.04,26.87 120.11,26.72 120.17,26.56 120.23,26.40 120.29,26.25 120.35,26.09 120.40,25.93 120.46,25.78 120.51,25.62 120.57,25.46 120.62,25.30 120.67,25.15 120.71,24.99 120.76,24.83 120.80,24.68 120.84,24.52 120.89,24.36 120.93,24.21 120.96,24.05 121.00,23.89 121.03,23.73 121.07,23.58 121.10,23.42 121.13,23.26 121.15,23.11 121.18,22.95 121.20,22.79 121.23,22.64 121.25,22.48 121.27,22.32 121.29,22.16 121.31,22.01 121.33,21.85 121.34,21.69 121.36,21.54 121.37,21.38 121.38,21.22 121.39,21.07 121.40,20.91 121.41,20.75 121.42,20.60 121.43,20.44 121.44,20.28 121.45,20.12 121.45,19.97 121.46,19.81 121.47,19.65 121.47,19.50 121.47,19.34 121.48,19.18 121.48,19.03 121.49,18.87 121.49,18.71 121.49,18.55 121.49,18.40 121.50,18.24 121.50,18.08 121.50,17.93 121.52,17.93 121.53,18.08 121.53,18.24 121.53,18.40 121.53,18.55 121.54,18.71 121.54,18.87 121.54,19.03 121.55,19.18 121.55,19.34 121.55,19.50 121.56,19.65 121.56,19.81 121.57,19.97 121.58,20.12 121.58,20.28 121.59,20.44 121.60,20.60 121.61,20.75 121.62,20.91 121.63,21.07 121.64,21.22 121.65,21.38 121.67,21.54 121.68,21.69 121.70,21.85 121.72,22.01 121.73,22.16 121.75,22.32 121.77,22.48 121.80,22.64 121.82,22.79 121.84,22.95 121.87,23.11 121.90,23.26 121.93,23.42 121.96,23.58 121.99,23.73 122.03,23.89 122.06,24.05 122.10,24.21 122.14,24.36 122.18,24.52 122.22,24.68 122.26,24.83 122.31,24.99 122.36,25.15 122.41,25.30 122.46,25.46 122.51,25.62 122.56,25.78 122.62,25.93 122.68,26.09 122.73,26.25 122.79,26.40 122.85,26.56 122.92,26.72 122.98,26.87 123.04,27.03 123.11,27.19 123.18,27.35 123.24,27.50 123.31,27.66 123.38,27.82 123.46,27.97 123.53,28.13 123.60,28.29 123.67,28.44 123.75,28.60 123.83,28.76 123.90,28.92 123.98,29.07 124.06,29.23 124.14,29.39 124.22,29.54 124.31,29.70 124.39,29.86 124.48,30.01 124.57,30.17 124.66,30.33 124.75,30.48 124.84,30.64 124.94,30.80 125.04,30.96 125.14,31.11 125.24,31.27 125.35,31.43 125.46,31.58 125.57,31.74 125.69,31.90 125.81,32.05 125.93,32.21 126.06,32.37 126.19,32.53 126.32,32.68 126.46,32.84 126.61,33.00 126.76,33.15 126.91,33.31 127.07,33.47 127.24,33.62 127.41,33.78 127.59,33.94 127.77,34.10 127.95,34.25 128.15,34.41 128.34,34.57 128.55,34.72 128.76,34.88 128.97,35.04 129.20,35.19 129.42,35.35 129.66,35.51 129.89,35.67 130.14,35.82 130.39,35.98 130.65,36.14 130.91,36.29 131.17,36.45 131.44,36.61 131.72,36.76 132.00,36.92 132.29,37.08 132.58,37.24 132.87,37.39 133.17,37.55 133.48,37.71 133.78,37.86 134.09,38.02 134.41,38.18 134.72,38.33 135.04,38.49 135.36,38.65 135.69,38.81 136.01,38.96 136.34,39.12 136.67,39.28 137.00,39.43 137.33,39.59 137.66,39.75 137.99,39.90 138.32,40.06 138.65,40.22 138.98,40.37 139.30,40.53 139.63,40.69 139.95,40.85 140.28,41.00 140.60,41.16 140.91,41.32 141.23,41.47 141.54,41.63 141.85,41.79 142.16,41.94 142.46,42.10 142.76,42.26 143.06,42.42 143.35,42.57 143.64,42.73 143.93,42.89 144.21,43.04 144.49,43.20 144.77,43.36 145.04,43.51 145.31,43.67 145.58,43.83 145.85,43.99 146.11,44.14 146.38,44.30 146.64,44.46 146.90,44.61 147.15,44.77 147.41,44.93 147.67,45.08 147.93,45.24 148.18,45.40 148.44,45.56 148.70,45.71 148.95,45.87 149.21,46.03 149.47,46.18 149.73,46.34 149.99,46.50 150.25,46.65 150.51,46.81 150.77,46.97 151.03,47.13 151.29,47.28 151.55,47.44 151.81,47.60 152.07,47.75 152.33,47.91 152.58,48.07 152.84,48.22 153.09,48.38 153.33,48.54 153.58,48.70 153.82,48.85 154.05,49.01 154.28,49.17 154.50,49.32 154.71,49.48 154.92,49.64 155.12,49.79 155.31,49.95 155.50,50.11 155.67,50.26 155.83,50.42 155.99,50.58 156.13,50.74 156.27,50.89 156.39,51.05 156.51,51.21 156.61,51.36 156.71,51.52 156.75,51.60 156.80,51.68 156.87,51.83 156.94,51.99 156.99,52.15 157.05,52.31 157.09,52.46 157.12,52.62 157.15,52.78 157.18,52.93 157.19,53.09 157.21,53.25 157.22,53.40 157.23,53.56 157.24,53.72 157.25,53.88 157.26,54.03 157.27,54.19 157.28,54.35 157.30,54.50 157.32,54.66 157.34,54.82 157.37,54.97 157.41,55.13 157.45,55.29 157.51,55.45 157.57,55.60 157.64,55.76 157.72,55.92 157.81,56.07 157.92,56.23 158.03,56.39 158.16,56.54 158.29,56.70 158.44,56.86 158.61,57.02 158.78,57.17 158.97,57.33 159.17,57.49 159.39,57.64 159.61,57.80 159.85,57.96 160.10,58.11 160.37,58.27 160.64,58.43 160.92,58.58 161.22,58.74 161.53,58.90 161.85,59.06 162.17,59.21 162.51,59.37 162.86,59.53 163.21,59.68 163.57,59.84 163.93,60.00 164.30,60.15 164.68,60.31 165.06,60.47 165.44,60.63 165.83,60.78 166.21,60.94 166.60,61.10 166.99,61.25 167.37,61.41 167.76,61.57 168.14,61.72 168.51,61.88 168.88,62.04 169.25,62.20 169.60,62.35 169.95,62.51 170.29,62.67 170.62,62.82 170.94,62.98 170.96,62.99 171.25,63.14 171.55,63.29 171.83,63.45 172.09,63.61 172.35,63.77 172.58,63.92 172.80,64.08 173.01,64.24 173.20,64.39 173.36,64.55 173.51,64.71 173.65,64.86 173.76,65.02 173.85,65.18 173.93,65.34 173.99,65.49 174.02,65.65 174.04,65.81 174.04,65.96 174.02,66.12 173.98,66.28 173.93,66.43 173.86,66.59 173.76,66.75 173.66,66.91 173.53,67.06 173.39,67.22 173.24,67.38 173.07,67.53 172.88,67.69 172.69,67.85 172.48,68.00 172.25,68.16 172.02,68.32 171.78,68.47 171.52,68.63 171.26,68.79 170.99,68.95 170.78,69.06 170.71,69.10 170.43,69.26 170.14,69.42 169.84,69.57 169.53,69.73 169.22,69.89 168.91,70.04 168.59,70.20 168.27,70.36 167.94,70.52 167.62,70.67 167.28,70.83 166.95,70.99 166.61,71.14 166.26,71.30 165.92,71.46 165.57,71.61 165.22,71.77 164.86,71.93 164.50,72.09 164.14,72.24 163.77,72.40 163.39,72.56 163.02,72.71 162.64,72.87 162.25,73.03 161.86,73.18 161.46,73.34 161.05,73.50 160.64,73.66 160.22,73.81 159.80,73.97 159.37,74.13 158.92,74.28 158.48,74.44 158.02,74.60 157.56,74.75 157.09,74.91 156.61,75.07 156.13,75.23 155.63,75.38 155.13,75.54 154.62,75.70 154.10,75.85 153.57,76.01 153.04,76.17 152.51,76.32 151.96,76.48 151.41,76.64 150.85,76.80 150.29,76.95 149.72,77.11 149.15,77.27 148.58,77.42 148.00,77.58 147.42,77.74 146.84,77.89 146.25,78.05 145.66,78.21 145.08,78.36 144.49,78.52 143.91,78.68 143.32,78.84 142.74,78.99 142.16,79.15 141.59,79.31 141.02,79.46 140.45,79.62 139.88,79.78 139.33,79.93 138.78,80.09 138.23,80.25 137.69,80.41 137.17,80.56 136.64,80.72 136.13,80.88 135.62,81.03 135.13,81.19 134.64,81.35 134.17,81.50 133.70,81.66 133.24,81.82 132.80,81.98 132.36,82.13 131.94,82.29 131.53,82.45 131.13,82.60 130.74,82.76 130.36,82.92 129.99,83.07 129.64,83.23 129.29,83.39 128.96,83.55 128.64,83.70 128.33,83.86 128.03,84.02 127.74,84.17 127.46,84.33 127.20,84.49 126.94,84.64 126.69,84.80 126.46,84.96 126.23,85.12 126.01,85.27 125.80,85.43 125.60,85.59 125.41,85.74 125.23,85.90 125.06,86.06 124.89,86.21 124.73,86.37 124.58,86.53 124.43,86.68 124.29,86.84 124.16,87.00 124.03,87.16 123.91,87.31 123.80,87.47 123.69,87.63 123.58,87.78 123.48,87.94 123.38,88.10 123.29,88.25 123.20,88.41 123.12,88.57 123.04,88.73 122.96,88.88 122.89,89.04 122.82,89.20 122.75,89.35 122.68,89.51 122.62,89.67 122.56,89.82 122.51,89.98 122.45,90.14 122.40,90.30 122.35,90.45 122.30,90.61 122.26,90.77 122.21,90.92 122.17,91.08 122.13,91.24 122.09,91.39 122.06,91.55 122.02,91.71 121.99,91.87 121.96,92.02 121.93,92.18 121.90,92.34 121.87,92.49 121.85,92.65 121.83,92.81 121.80,92.96 121.78,93.12 121.76,93.28 121.74,93.44 121.72,93.59 121.71,93.75 121.69,93.91 121.68,94.06 121.66,94.22 121.65,94.38 121.64,94.53 121.63,94.69 121.62,94.85 121.61,95.01 121.60,95.16 121.59,95.32 121.58,95.48 121.58,95.63 121.57,95.79 121.57,95.95 121.56,96.10 121.56,96.26 121.55,96.42 121.55,96.57 121.54,96.73 121.54,96.89 121.54,97.05 121.53,97.20 121.53,97.36 121.53,97.52 121.53,97.67 121.53,97.83 121.52,97.99 121.52,98.14 121.50,98.14 "
         style="stroke-width: 0.85; stroke-linecap: butt; fill: #FF7F00;"
         id="polygon15" />
      <polygon
         points="238.23,159.56 238.23,159.31 238.23,159.07 238.23,158.83 238.23,158.58 238.22,158.34 238.22,158.10 238.22,157.85 238.21,157.61 238.21,157.37 238.20,157.12 238.20,156.88 238.19,156.63 238.18,156.39 238.18,156.15 238.17,155.90 238.16,155.66 238.15,155.42 238.14,155.17 238.13,154.93 238.12,154.69 238.10,154.44 238.09,154.20 238.08,153.96 238.06,153.71 238.04,153.47 238.02,153.22 238.00,152.98 237.98,152.74 237.96,152.49 237.94,152.25 237.91,152.01 237.89,151.76 237.86,151.52 237.83,151.28 237.80,151.03 237.77,150.79 237.73,150.55 237.70,150.30 237.66,150.06 237.62,149.81 237.59,149.57 237.55,149.33 237.50,149.08 237.46,148.84 237.42,148.60 237.37,148.35 237.33,148.11 237.28,147.87 237.23,147.62 237.19,147.38 237.14,147.14 237.09,146.89 237.04,146.65 236.99,146.41 236.94,146.16 236.89,145.92 236.85,145.67 236.80,145.43 236.75,145.19 236.70,144.94 236.66,144.70 236.61,144.46 236.57,144.21 236.53,143.97 236.48,143.73 236.44,143.48 236.41,143.24 236.37,143.00 236.33,142.75 236.30,142.51 236.27,142.26 236.24,142.02 236.21,141.78 236.18,141.53 236.16,141.29 236.14,141.05 236.12,140.80 236.10,140.56 236.08,140.32 236.06,140.07 236.05,139.83 236.04,139.59 236.03,139.34 236.02,139.10 236.01,138.85 236.00,138.61 236.00,138.37 235.99,138.12 235.99,137.88 235.99,137.64 235.98,137.39 235.98,137.15 235.98,136.91 235.97,136.66 235.97,136.42 235.97,136.18 235.96,135.93 235.96,135.69 235.95,135.45 235.95,135.20 235.94,134.96 235.93,134.71 235.92,134.47 235.91,134.23 235.89,133.98 235.88,133.74 235.86,133.50 235.84,133.25 235.81,133.01 235.79,132.77 235.76,132.52 235.73,132.28 235.70,132.04 235.66,131.79 235.62,131.55 235.58,131.30 235.53,131.06 235.48,130.82 235.43,130.57 235.38,130.33 235.32,130.09 235.25,129.84 235.18,129.60 235.11,129.36 235.04,129.11 234.96,128.87 234.87,128.63 234.79,128.38 234.69,128.14 234.60,127.89 234.49,127.65 234.38,127.41 234.27,127.16 234.15,126.92 234.03,126.68 233.90,126.43 233.77,126.19 233.63,125.95 233.48,125.70 233.33,125.46 233.17,125.22 233.01,124.97 232.84,124.73 232.66,124.49 232.48,124.24 232.29,124.00 232.10,123.75 231.89,123.51 231.68,123.27 231.47,123.02 231.25,122.78 231.02,122.54 230.78,122.29 230.54,122.05 230.30,121.81 230.04,121.56 229.79,121.32 229.52,121.08 229.25,120.83 228.98,120.59 228.70,120.34 228.42,120.10 228.13,119.86 227.84,119.61 227.55,119.37 227.25,119.13 226.95,118.88 226.65,118.64 226.35,118.40 226.05,118.15 225.75,117.91 225.44,117.67 225.14,117.42 224.84,117.18 224.54,116.93 224.25,116.69 223.95,116.45 223.66,116.20 223.38,115.96 223.09,115.72 222.82,115.47 222.54,115.23 222.28,114.99 222.02,114.74 221.76,114.50 221.52,114.26 221.28,114.01 221.04,113.77 220.82,113.52 220.60,113.28 220.39,113.04 220.18,112.79 219.99,112.55 219.80,112.31 219.62,112.06 219.44,111.82 219.28,111.58 219.12,111.33 218.97,111.09 218.82,110.85 218.68,110.60 218.55,110.36 218.42,110.12 218.29,109.87 218.17,109.63 218.06,109.38 217.94,109.14 217.83,108.90 217.73,108.65 217.62,108.41 217.52,108.17 217.41,107.92 217.31,107.68 217.21,107.44 217.10,107.19 217.00,106.95 216.89,106.71 216.78,106.46 216.67,106.22 216.56,105.97 216.44,105.73 216.32,105.49 216.20,105.24 216.07,105.00 215.94,104.76 215.81,104.51 215.67,104.27 215.53,104.03 215.38,103.78 215.23,103.54 215.08,103.30 214.93,103.05 214.77,102.81 214.61,102.56 214.45,102.32 214.28,102.08 214.12,101.83 214.00,101.66 213.95,101.59 213.79,101.35 213.62,101.10 213.46,100.86 213.29,100.62 213.13,100.37 212.97,100.13 212.81,99.89 212.66,99.64 212.51,99.40 212.36,99.16 212.22,98.91 212.08,98.67 211.94,98.42 211.81,98.18 211.69,97.94 211.57,97.69 211.45,97.45 211.34,97.21 211.23,96.96 211.13,96.72 211.03,96.48 210.93,96.23 210.84,95.99 210.75,95.75 210.66,95.50 210.57,95.26 210.48,95.01 210.40,94.77 210.31,94.53 210.22,94.28 210.13,94.04 210.04,93.80 209.94,93.55 209.83,93.31 209.73,93.07 209.61,92.82 209.49,92.58 209.36,92.34 209.22,92.09 209.07,91.85 208.92,91.60 208.75,91.36 208.57,91.12 208.38,90.87 208.18,90.63 207.97,90.39 207.75,90.14 207.52,89.90 207.27,89.66 207.02,89.41 206.75,89.17 206.47,88.93 206.19,88.68 205.89,88.44 205.59,88.20 205.27,87.95 204.95,87.71 204.63,87.46 204.32,87.24 204.30,87.22 203.96,86.98 203.63,86.73 203.29,86.49 202.95,86.25 202.61,86.00 202.27,85.76 201.94,85.52 201.61,85.27 201.29,85.03 200.97,84.79 200.66,84.54 200.37,84.30 200.08,84.05 199.80,83.81 199.55,83.57 199.30,83.32 199.07,83.08 198.86,82.84 198.67,82.59 198.49,82.35 198.34,82.11 198.20,81.86 198.09,81.62 198.00,81.38 197.93,81.13 197.89,80.89 197.87,80.64 197.87,80.40 197.89,80.16 197.95,79.91 198.02,79.67 198.12,79.43 198.25,79.18 198.40,78.94 198.57,78.70 198.77,78.45 198.96,78.24 198.99,78.21 199.24,77.97 199.51,77.72 199.80,77.48 200.12,77.24 200.45,76.99 200.81,76.75 201.18,76.50 201.58,76.26 202.00,76.02 202.43,75.77 202.88,75.53 203.34,75.29 203.82,75.04 204.32,74.80 204.83,74.56 205.35,74.31 205.88,74.07 206.43,73.83 206.98,73.58 207.54,73.34 208.11,73.09 208.69,72.85 209.27,72.61 209.85,72.36 210.44,72.12 211.04,71.88 211.63,71.63 212.22,71.39 212.82,71.15 213.41,70.90 214.00,70.66 214.59,70.42 215.18,70.17 215.76,69.93 216.34,69.68 216.91,69.44 217.47,69.20 218.03,68.95 218.59,68.71 219.13,68.47 219.67,68.22 220.20,67.98 220.72,67.74 221.23,67.49 221.73,67.25 222.23,67.01 222.71,66.76 223.19,66.52 223.65,66.28 224.11,66.03 224.55,65.79 224.99,65.54 225.41,65.30 225.83,65.06 226.23,64.81 226.63,64.57 227.01,64.33 227.39,64.08 227.76,63.84 228.12,63.60 228.46,63.35 228.80,63.11 229.13,62.87 229.45,62.62 229.76,62.38 230.06,62.13 230.35,61.89 230.63,61.65 230.91,61.40 231.17,61.16 231.43,60.92 231.68,60.67 231.91,60.43 232.14,60.19 232.37,59.94 232.58,59.70 232.79,59.46 232.98,59.21 233.17,58.97 233.35,58.72 233.53,58.48 233.69,58.24 233.85,57.99 234.00,57.75 234.15,57.51 234.28,57.26 234.42,57.02 234.54,56.78 234.66,56.53 234.77,56.29 234.88,56.05 234.99,55.80 235.08,55.56 235.18,55.32 235.27,55.07 235.35,54.83 235.44,54.58 235.51,54.34 235.59,54.10 235.66,53.85 235.73,53.61 235.80,53.37 235.86,53.12 235.93,52.88 235.99,52.64 236.05,52.39 236.11,52.15 236.17,51.91 236.22,51.66 236.28,51.42 236.33,51.17 236.39,50.93 236.44,50.69 236.50,50.44 236.55,50.20 236.60,49.96 236.66,49.71 236.71,49.47 236.76,49.23 236.81,48.98 236.87,48.74 236.92,48.50 236.97,48.25 237.02,48.01 237.07,47.76 237.12,47.52 237.17,47.28 237.22,47.03 237.26,46.79 237.31,46.55 237.35,46.30 237.40,46.06 237.44,45.82 237.49,45.57 237.53,45.33 237.57,45.09 237.61,44.84 237.64,44.60 237.68,44.36 237.72,44.11 237.75,43.87 237.78,43.62 237.81,43.38 237.84,43.14 237.87,42.89 237.90,42.65 237.92,42.41 237.95,42.16 237.97,41.92 237.99,41.68 238.01,41.43 238.03,41.19 238.05,40.95 238.07,40.70 238.08,40.46 238.10,40.21 238.11,39.97 238.12,39.73 238.13,39.48 238.14,39.24 238.15,39.00 238.16,38.75 238.17,38.51 238.18,38.27 238.19,38.02 238.19,37.78 238.20,37.54 238.20,37.29 238.21,37.05 238.21,36.80 238.22,36.56 238.22,36.32 238.22,36.07 238.23,35.83 238.23,35.59 238.23,35.34 238.23,35.10 238.26,35.10 238.27,35.34 238.27,35.59 238.27,35.83 238.27,36.07 238.28,36.32 238.28,36.56 238.28,36.80 238.29,37.05 238.29,37.29 238.30,37.54 238.30,37.78 238.31,38.02 238.32,38.27 238.32,38.51 238.33,38.75 238.34,39.00 238.35,39.24 238.36,39.48 238.37,39.73 238.39,39.97 238.40,40.21 238.41,40.46 238.43,40.70 238.45,40.95 238.47,41.19 238.48,41.43 238.50,41.68 238.53,41.92 238.55,42.16 238.57,42.41 238.60,42.65 238.63,42.89 238.65,43.14 238.68,43.38 238.71,43.62 238.75,43.87 238.78,44.11 238.82,44.36 238.85,44.60 238.89,44.84 238.93,45.09 238.97,45.33 239.01,45.57 239.05,45.82 239.10,46.06 239.14,46.30 239.19,46.55 239.23,46.79 239.28,47.03 239.33,47.28 239.38,47.52 239.43,47.76 239.48,48.01 239.53,48.25 239.58,48.50 239.63,48.74 239.68,48.98 239.73,49.23 239.79,49.47 239.84,49.71 239.89,49.96 239.95,50.20 240.00,50.44 240.05,50.69 240.11,50.93 240.16,51.17 240.22,51.42 240.27,51.66 240.33,51.91 240.39,52.15 240.45,52.39 240.51,52.64 240.57,52.88 240.63,53.12 240.70,53.37 240.76,53.61 240.83,53.85 240.91,54.10 240.98,54.34 241.06,54.58 241.14,54.83 241.23,55.07 241.32,55.32 241.41,55.56 241.51,55.80 241.61,56.05 241.72,56.29 241.84,56.53 241.95,56.78 242.08,57.02 242.21,57.26 242.35,57.51 242.49,57.75 242.65,57.99 242.81,58.24 242.97,58.48 243.14,58.72 243.33,58.97 243.52,59.21 243.71,59.46 243.92,59.70 244.13,59.94 244.35,60.19 244.58,60.43 244.82,60.67 245.07,60.92 245.32,61.16 245.59,61.40 245.86,61.65 246.14,61.89 246.43,62.13 246.74,62.38 247.05,62.62 247.37,62.87 247.69,63.11 248.03,63.35 248.38,63.60 248.74,63.84 249.10,64.08 249.48,64.33 249.87,64.57 250.26,64.81 250.67,65.06 251.09,65.30 251.51,65.54 251.94,65.79 252.39,66.03 252.85,66.28 253.31,66.52 253.79,66.76 254.27,67.01 254.76,67.25 255.27,67.49 255.78,67.74 256.30,67.98 256.83,68.22 257.36,68.47 257.91,68.71 258.46,68.95 259.02,69.20 259.59,69.44 260.16,69.68 260.74,69.93 261.32,70.17 261.90,70.42 262.49,70.66 263.09,70.90 263.68,71.15 264.27,71.39 264.87,71.63 265.46,71.88 266.05,72.12 266.64,72.36 267.23,72.61 267.81,72.85 268.39,73.09 268.95,73.34 269.52,73.58 270.07,73.83 270.61,74.07 271.14,74.31 271.67,74.56 272.18,74.80 272.67,75.04 273.15,75.29 273.62,75.53 274.07,75.77 274.50,76.02 274.92,76.26 275.31,76.50 275.69,76.75 276.04,76.99 276.38,77.24 276.70,77.48 276.99,77.72 277.25,77.97 277.50,78.21 277.53,78.24 277.73,78.45 277.92,78.70 278.10,78.94 278.25,79.18 278.37,79.43 278.47,79.67 278.55,79.91 278.60,80.16 278.63,80.40 278.63,80.64 278.61,80.89 278.57,81.13 278.50,81.38 278.40,81.62 278.29,81.86 278.16,82.11 278.00,82.35 277.83,82.59 277.64,82.84 277.42,83.08 277.19,83.32 276.95,83.57 276.69,83.81 276.42,84.05 276.13,84.30 275.83,84.54 275.53,84.79 275.21,85.03 274.89,85.27 274.56,85.52 274.23,85.76 273.89,86.00 273.55,86.25 273.21,86.49 272.87,86.73 272.53,86.98 272.20,87.22 272.18,87.24 271.87,87.46 271.54,87.71 271.22,87.95 270.91,88.20 270.61,88.44 270.31,88.68 270.02,88.93 269.75,89.17 269.48,89.41 269.22,89.66 268.98,89.90 268.74,90.14 268.52,90.39 268.31,90.63 268.11,90.87 267.92,91.12 267.75,91.36 267.58,91.60 267.42,91.85 267.28,92.09 267.14,92.34 267.01,92.58 266.88,92.82 266.77,93.07 266.66,93.31 266.56,93.55 266.46,93.80 266.37,94.04 266.27,94.28 266.19,94.53 266.10,94.77 266.01,95.01 265.92,95.26 265.84,95.50 265.75,95.75 265.66,95.99 265.57,96.23 265.47,96.48 265.37,96.72 265.27,96.96 265.16,97.21 265.05,97.45 264.93,97.69 264.81,97.94 264.68,98.18 264.55,98.42 264.42,98.67 264.28,98.91 264.14,99.16 263.99,99.40 263.84,99.64 263.68,99.89 263.52,100.13 263.36,100.37 263.20,100.62 263.04,100.86 262.87,101.10 262.71,101.35 262.54,101.59 262.49,101.66 262.38,101.83 262.21,102.08 262.05,102.32 261.89,102.56 261.73,102.81 261.57,103.05 261.41,103.30 261.26,103.54 261.11,103.78 260.97,104.03 260.83,104.27 260.69,104.51 260.56,104.76 260.43,105.00 260.30,105.24 260.18,105.49 260.06,105.73 259.94,105.97 259.83,106.22 259.71,106.46 259.61,106.71 259.50,106.95 259.39,107.19 259.29,107.44 259.19,107.68 259.08,107.92 258.98,108.17 258.88,108.41 258.77,108.65 258.66,108.90 258.55,109.14 258.44,109.38 258.32,109.63 258.21,109.87 258.08,110.12 257.95,110.36 257.82,110.60 257.68,110.85 257.53,111.09 257.38,111.33 257.22,111.58 257.05,111.82 256.88,112.06 256.70,112.31 256.51,112.55 256.31,112.79 256.11,113.04 255.90,113.28 255.68,113.52 255.45,113.77 255.22,114.01 254.98,114.26 254.73,114.50 254.48,114.74 254.22,114.99 253.95,115.23 253.68,115.47 253.40,115.72 253.12,115.96 252.83,116.20 252.54,116.45 252.25,116.69 251.95,116.93 251.66,117.18 251.36,117.42 251.05,117.67 250.75,117.91 250.45,118.15 250.15,118.40 249.84,118.64 249.54,118.88 249.25,119.13 248.95,119.37 248.66,119.61 248.36,119.86 248.08,120.10 247.80,120.34 247.52,120.59 247.24,120.83 246.97,121.08 246.71,121.32 246.45,121.56 246.20,121.81 245.95,122.05 245.71,122.29 245.48,122.54 245.25,122.78 245.03,123.02 244.81,123.27 244.60,123.51 244.40,123.75 244.21,124.00 244.02,124.24 243.83,124.49 243.66,124.73 243.49,124.97 243.32,125.22 243.16,125.46 243.01,125.70 242.87,125.95 242.73,126.19 242.59,126.43 242.46,126.68 242.34,126.92 242.22,127.16 242.11,127.41 242.00,127.65 241.90,127.89 241.80,128.14 241.71,128.38 241.62,128.63 241.54,128.87 241.46,129.11 241.38,129.36 241.31,129.60 241.24,129.84 241.18,130.09 241.12,130.33 241.06,130.57 241.01,130.82 240.96,131.06 240.92,131.30 240.87,131.55 240.84,131.79 240.80,132.04 240.77,132.28 240.73,132.52 240.71,132.77 240.68,133.01 240.66,133.25 240.64,133.50 240.62,133.74 240.60,133.98 240.59,134.23 240.58,134.47 240.57,134.71 240.56,134.96 240.55,135.20 240.54,135.45 240.54,135.69 240.53,135.93 240.53,136.18 240.53,136.42 240.52,136.66 240.52,136.91 240.52,137.15 240.51,137.39 240.51,137.64 240.51,137.88 240.50,138.12 240.50,138.37 240.49,138.61 240.49,138.85 240.48,139.10 240.47,139.34 240.46,139.59 240.45,139.83 240.43,140.07 240.42,140.32 240.40,140.56 240.38,140.80 240.36,141.05 240.34,141.29 240.31,141.53 240.29,141.78 240.26,142.02 240.23,142.26 240.20,142.51 240.16,142.75 240.13,143.00 240.09,143.24 240.05,143.48 240.01,143.73 239.97,143.97 239.93,144.21 239.88,144.46 239.84,144.70 239.79,144.94 239.75,145.19 239.70,145.43 239.65,145.67 239.60,145.92 239.55,146.16 239.50,146.41 239.45,146.65 239.41,146.89 239.36,147.14 239.31,147.38 239.26,147.62 239.21,147.87 239.17,148.11 239.12,148.35 239.08,148.60 239.03,148.84 238.99,149.08 238.95,149.33 238.91,149.57 238.87,149.81 238.83,150.06 238.80,150.30 238.76,150.55 238.73,150.79 238.70,151.03 238.67,151.28 238.64,151.52 238.61,151.76 238.58,152.01 238.56,152.25 238.54,152.49 238.51,152.74 238.49,152.98 238.47,153.22 238.45,153.47 238.44,153.71 238.42,153.96 238.41,154.20 238.39,154.44 238.38,154.69 238.37,154.93 238.36,155.17 238.35,155.42 238.34,155.66 238.33,155.90 238.32,156.15 238.31,156.39 238.31,156.63 238.30,156.88 238.29,157.12 238.29,157.37 238.28,157.61 238.28,157.85 238.28,158.10 238.27,158.34 238.27,158.58 238.27,158.83 238.27,159.07 238.26,159.31 238.26,159.56 238.23,159.56 "
         style="stroke-width: 0.85; stroke-linecap: butt; fill: #E31A1C;"
         id="polygon16" />
      <polygon
         points="354.98,236.98 354.98,236.58 354.98,236.18 354.97,235.78 354.97,235.39 354.97,234.99 354.97,234.59 354.96,234.20 354.96,233.80 354.96,233.40 354.95,233.01 354.95,232.61 354.94,232.21 354.93,231.82 354.93,231.42 354.92,231.02 354.91,230.63 354.90,230.23 354.89,229.83 354.88,229.44 354.86,229.04 354.85,228.64 354.84,228.25 354.82,227.85 354.80,227.45 354.79,227.06 354.77,226.66 354.75,226.26 354.73,225.86 354.71,225.47 354.69,225.07 354.67,224.67 354.65,224.28 354.63,223.88 354.61,223.48 354.58,223.09 354.57,222.69 354.55,222.29 354.53,221.90 354.51,221.50 354.50,221.10 354.48,220.71 354.47,220.31 354.46,219.91 354.45,219.52 354.44,219.12 354.44,218.72 354.44,218.33 354.44,217.93 354.44,217.53 354.44,217.14 354.45,216.74 354.46,216.34 354.47,215.95 354.48,215.55 354.49,215.15 354.51,214.75 354.52,214.36 354.54,213.96 354.56,213.56 354.58,213.17 354.60,212.77 354.62,212.37 354.64,211.98 354.66,211.58 354.68,211.18 354.70,210.79 354.72,210.39 354.74,209.99 354.76,209.60 354.78,209.20 354.80,208.80 354.81,208.41 354.83,208.01 354.85,207.61 354.86,207.22 354.87,206.82 354.88,206.42 354.90,206.03 354.91,205.63 354.91,205.23 354.92,204.83 354.93,204.44 354.94,204.04 354.94,203.64 354.95,203.25 354.95,202.85 354.96,202.45 354.96,202.06 354.97,201.66 354.97,201.26 354.97,200.87 354.97,200.47 354.97,200.07 354.98,199.68 354.98,199.28 354.98,198.88 354.98,198.49 354.98,198.09 354.98,197.69 354.98,197.30 354.98,196.90 354.98,196.50 354.98,196.11 354.98,195.71 354.98,195.31 354.98,194.92 354.98,194.52 354.98,194.12 354.98,193.72 354.98,193.33 354.98,192.93 354.98,192.53 354.98,192.14 354.98,191.74 354.98,191.34 354.98,190.95 354.98,190.55 354.98,190.15 354.98,189.76 354.98,189.36 354.98,188.96 354.98,188.57 354.98,188.17 354.98,187.77 354.98,187.38 354.98,186.98 354.98,186.58 354.98,186.19 354.98,185.79 354.98,185.39 354.98,185.00 354.98,184.60 354.98,184.20 354.98,183.80 354.98,183.41 354.98,183.01 354.98,182.61 354.98,182.22 354.98,181.82 354.98,181.42 354.98,181.03 354.98,180.63 354.98,180.23 354.98,179.84 354.98,179.44 354.98,179.04 354.98,178.65 354.98,178.25 354.98,177.85 354.98,177.46 354.98,177.06 354.98,176.66 354.98,176.27 354.98,175.87 354.98,175.47 354.98,175.08 354.98,174.68 354.98,174.28 354.98,173.89 354.98,173.49 354.98,173.09 354.98,172.69 354.98,172.30 354.98,171.90 354.98,171.50 354.98,171.11 354.98,170.71 354.98,170.31 354.98,169.92 354.98,169.52 354.98,169.12 354.98,168.73 354.98,168.33 354.98,167.93 354.98,167.54 354.98,167.14 354.98,166.74 354.98,166.35 354.98,165.95 354.98,165.55 354.98,165.16 354.98,164.76 354.97,164.36 354.97,163.97 354.97,163.57 354.97,163.17 354.96,162.78 354.96,162.38 354.96,161.98 354.95,161.58 354.95,161.19 354.94,160.79 354.93,160.39 354.92,160.00 354.92,159.60 354.91,159.20 354.90,158.81 354.88,158.41 354.87,158.01 354.86,157.62 354.84,157.22 354.82,156.82 354.80,156.43 354.78,156.03 354.76,155.63 354.74,155.24 354.71,154.84 354.68,154.44 354.66,154.05 354.63,153.65 354.59,153.25 354.56,152.86 354.52,152.46 354.49,152.06 354.45,151.66 354.40,151.27 354.36,150.87 354.32,150.47 354.27,150.08 354.22,149.68 354.17,149.28 354.11,148.89 354.06,148.49 354.00,148.09 353.94,147.70 353.88,147.30 353.82,146.90 353.75,146.51 353.68,146.11 353.62,145.71 353.54,145.32 353.47,144.92 353.39,144.52 353.31,144.13 353.23,143.73 353.14,143.33 353.06,142.94 352.97,142.54 352.88,142.14 352.78,141.75 352.68,141.35 352.58,140.95 352.48,140.55 352.38,140.16 352.27,139.76 352.16,139.36 352.05,138.97 351.94,138.57 351.82,138.17 351.70,137.78 351.58,137.38 351.45,136.98 351.32,136.59 351.19,136.19 351.06,135.79 350.92,135.40 350.78,135.00 350.64,134.60 350.49,134.21 350.34,133.81 350.19,133.41 350.03,133.02 349.87,132.62 349.70,132.22 349.53,131.83 349.35,131.43 349.17,131.03 348.98,130.63 348.79,130.24 348.60,129.84 348.40,129.44 348.19,129.05 347.98,128.65 347.76,128.25 347.54,127.86 347.32,127.46 347.09,127.06 346.85,126.67 346.61,126.27 346.37,125.87 346.12,125.48 345.86,125.08 345.60,124.68 345.34,124.29 345.07,123.89 344.79,123.49 344.51,123.10 344.23,122.70 343.94,122.30 343.64,121.91 343.34,121.51 343.03,121.11 342.71,120.72 342.39,120.32 342.06,119.92 341.73,119.52 341.38,119.13 341.02,118.73 340.66,118.33 340.29,117.94 339.91,117.54 339.52,117.14 339.12,116.75 338.72,116.35 338.30,115.95 337.88,115.56 337.45,115.16 337.02,114.76 336.58,114.37 336.14,113.97 335.70,113.57 335.25,113.18 334.81,112.78 334.37,112.38 333.93,111.99 333.50,111.59 333.08,111.19 332.66,110.80 332.26,110.40 331.86,110.00 331.48,109.60 331.12,109.21 330.77,108.81 330.43,108.41 330.12,108.02 329.81,107.62 329.54,107.22 329.36,106.96 329.27,106.83 329.03,106.43 328.80,106.03 328.58,105.64 328.39,105.24 328.21,104.84 328.05,104.45 327.89,104.05 327.75,103.65 327.63,103.26 327.51,102.86 327.40,102.46 327.29,102.07 327.20,101.67 327.11,101.27 327.02,100.88 326.94,100.48 326.85,100.08 326.77,99.69 326.69,99.29 326.61,98.89 326.53,98.49 326.45,98.10 326.37,97.70 326.29,97.30 326.20,96.91 326.11,96.51 326.03,96.11 325.94,95.72 325.85,95.32 325.76,94.92 325.67,94.53 325.59,94.13 325.50,93.73 325.41,93.34 325.33,92.94 325.25,92.54 325.22,92.39 325.17,92.15 325.10,91.75 325.03,91.35 324.97,90.96 324.92,90.56 324.87,90.16 324.83,89.77 324.80,89.37 324.77,88.97 324.76,88.57 324.76,88.18 324.77,87.78 324.79,87.38 324.83,86.99 324.88,86.59 324.95,86.19 325.03,85.80 325.13,85.40 325.25,85.00 325.39,84.61 325.54,84.21 325.70,83.81 325.90,83.42 326.10,83.02 326.33,82.62 326.57,82.23 326.83,81.83 327.10,81.43 327.40,81.04 327.70,80.64 328.02,80.24 328.03,80.24 328.36,79.85 328.70,79.45 329.06,79.05 329.42,78.66 329.79,78.26 330.17,77.86 330.55,77.46 330.93,77.07 331.31,76.67 331.70,76.27 332.08,75.88 332.46,75.48 332.84,75.08 333.21,74.69 333.57,74.29 333.93,73.89 334.29,73.50 334.63,73.10 334.97,72.70 335.30,72.31 335.63,71.91 335.95,71.51 336.26,71.12 336.56,70.72 336.86,70.32 337.15,69.93 337.44,69.53 337.73,69.13 338.01,68.74 338.29,68.34 338.56,67.94 338.84,67.54 339.11,67.15 339.39,66.75 339.67,66.35 339.95,65.96 340.23,65.56 340.51,65.16 340.80,64.77 341.09,64.37 341.39,63.97 341.69,63.58 342.00,63.18 342.31,62.78 342.63,62.39 342.95,61.99 343.28,61.59 343.62,61.20 343.95,60.80 344.30,60.40 344.64,60.01 344.99,59.61 345.35,59.21 345.70,58.82 346.06,58.42 346.42,58.02 346.78,57.63 347.14,57.23 347.50,56.83 347.85,56.43 348.21,56.04 348.55,55.64 348.90,55.24 349.23,54.85 349.56,54.45 349.89,54.05 350.20,53.66 350.51,53.26 350.80,52.86 351.09,52.47 351.36,52.07 351.62,51.67 351.88,51.28 352.12,50.88 352.34,50.48 352.56,50.09 352.76,49.69 352.96,49.29 353.14,48.90 353.30,48.50 353.46,48.10 353.61,47.71 353.74,47.31 353.87,46.91 353.98,46.51 354.09,46.12 354.19,45.72 354.27,45.32 354.35,44.93 354.43,44.53 354.49,44.13 354.55,43.74 354.60,43.34 354.65,42.94 354.69,42.55 354.73,42.15 354.77,41.75 354.79,41.36 354.82,40.96 354.84,40.56 354.86,40.17 354.88,39.77 354.90,39.37 354.91,38.98 354.92,38.58 354.93,38.18 354.94,37.79 354.95,37.39 354.95,36.99 354.96,36.60 354.96,36.20 354.97,35.80 354.97,35.40 354.97,35.01 354.97,34.61 354.98,34.21 354.99,34.21 354.99,34.61 355.00,35.01 355.00,35.40 355.00,35.80 355.01,36.20 355.01,36.60 355.02,36.99 355.02,37.39 355.03,37.79 355.04,38.18 355.05,38.58 355.06,38.98 355.07,39.37 355.09,39.77 355.11,40.17 355.13,40.56 355.15,40.96 355.17,41.36 355.20,41.75 355.24,42.15 355.28,42.55 355.32,42.94 355.37,43.34 355.42,43.74 355.48,44.13 355.54,44.53 355.62,44.93 355.70,45.32 355.78,45.72 355.88,46.12 355.99,46.51 356.10,46.91 356.23,47.31 356.36,47.71 356.51,48.10 356.66,48.50 356.83,48.90 357.01,49.29 357.20,49.69 357.41,50.09 357.62,50.48 357.85,50.88 358.09,51.28 358.34,51.67 358.61,52.07 358.88,52.47 359.17,52.86 359.46,53.26 359.77,53.66 360.08,54.05 360.41,54.45 360.74,54.85 361.07,55.24 361.42,55.64 361.76,56.04 362.12,56.43 362.47,56.83 362.83,57.23 363.19,57.63 363.55,58.02 363.91,58.42 364.26,58.82 364.62,59.21 364.98,59.61 365.33,60.01 365.67,60.40 366.02,60.80 366.35,61.20 366.69,61.59 367.02,61.99 367.34,62.39 367.66,62.78 367.97,63.18 368.28,63.58 368.58,63.97 368.87,64.37 369.17,64.77 369.45,65.16 369.74,65.56 370.02,65.96 370.30,66.35 370.58,66.75 370.85,67.15 371.13,67.54 371.41,67.94 371.68,68.34 371.96,68.74 372.24,69.13 372.53,69.53 372.82,69.93 373.11,70.32 373.41,70.72 373.71,71.12 374.02,71.51 374.34,71.91 374.66,72.31 375.00,72.70 375.34,73.10 375.68,73.50 376.03,73.89 376.40,74.29 376.76,74.69 377.13,75.08 377.51,75.48 377.89,75.88 378.27,76.27 378.66,76.67 379.04,77.07 379.42,77.46 379.80,77.86 380.18,78.26 380.55,78.66 380.91,79.05 381.27,79.45 381.61,79.85 381.94,80.24 381.94,80.24 382.26,80.64 382.57,81.04 382.86,81.43 383.14,81.83 383.40,82.23 383.64,82.62 383.87,83.02 384.07,83.42 384.26,83.81 384.43,84.21 384.58,84.61 384.72,85.00 384.84,85.40 384.94,85.80 385.02,86.19 385.08,86.59 385.14,86.99 385.17,87.38 385.20,87.78 385.21,88.18 385.21,88.57 385.20,88.97 385.17,89.37 385.14,89.77 385.10,90.16 385.05,90.56 385.00,90.96 384.93,91.35 384.87,91.75 384.79,92.15 384.75,92.39 384.72,92.54 384.64,92.94 384.55,93.34 384.47,93.73 384.38,94.13 384.29,94.53 384.21,94.92 384.12,95.32 384.03,95.72 383.94,96.11 383.85,96.51 383.77,96.91 383.68,97.30 383.60,97.70 383.52,98.10 383.44,98.49 383.36,98.89 383.28,99.29 383.20,99.69 383.11,100.08 383.03,100.48 382.95,100.88 382.86,101.27 382.77,101.67 382.67,102.07 382.57,102.46 382.46,102.86 382.34,103.26 382.22,103.65 382.08,104.05 381.92,104.45 381.76,104.84 381.58,105.24 381.38,105.64 381.17,106.03 380.94,106.43 380.70,106.83 380.61,106.96 380.43,107.22 380.15,107.62 379.85,108.02 379.54,108.41 379.20,108.81 378.85,109.21 378.49,109.60 378.11,110.00 377.71,110.40 377.31,110.80 376.89,111.19 376.47,111.59 376.04,111.99 375.60,112.38 375.16,112.78 374.72,113.18 374.27,113.57 373.83,113.97 373.39,114.37 372.95,114.76 372.52,115.16 372.09,115.56 371.67,115.95 371.25,116.35 370.85,116.75 370.45,117.14 370.06,117.54 369.68,117.94 369.31,118.33 368.94,118.73 368.59,119.13 368.24,119.52 367.91,119.92 367.58,120.32 367.25,120.72 366.94,121.11 366.63,121.51 366.33,121.91 366.03,122.30 365.74,122.70 365.46,123.10 365.18,123.49 364.90,123.89 364.63,124.29 364.37,124.68 364.11,125.08 363.85,125.48 363.60,125.87 363.36,126.27 363.12,126.67 362.88,127.06 362.65,127.46 362.42,127.86 362.20,128.25 361.99,128.65 361.78,129.05 361.57,129.44 361.37,129.84 361.17,130.24 360.98,130.63 360.80,131.03 360.62,131.43 360.44,131.83 360.27,132.22 360.10,132.62 359.94,133.02 359.78,133.41 359.63,133.81 359.48,134.21 359.33,134.60 359.18,135.00 359.04,135.40 358.91,135.79 358.77,136.19 358.64,136.59 358.52,136.98 358.39,137.38 358.27,137.78 358.15,138.17 358.03,138.57 357.92,138.97 357.81,139.36 357.70,139.76 357.59,140.16 357.49,140.55 357.38,140.95 357.28,141.35 357.19,141.75 357.09,142.14 357.00,142.54 356.91,142.94 356.82,143.33 356.74,143.73 356.66,144.13 356.58,144.52 356.50,144.92 356.43,145.32 356.35,145.71 356.28,146.11 356.22,146.51 356.15,146.90 356.09,147.30 356.03,147.70 355.97,148.09 355.91,148.49 355.85,148.89 355.80,149.28 355.75,149.68 355.70,150.08 355.65,150.47 355.61,150.87 355.56,151.27 355.52,151.66 355.48,152.06 355.45,152.46 355.41,152.86 355.38,153.25 355.34,153.65 355.31,154.05 355.28,154.44 355.26,154.84 355.23,155.24 355.21,155.63 355.19,156.03 355.17,156.43 355.15,156.82 355.13,157.22 355.11,157.62 355.10,158.01 355.09,158.41 355.07,158.81 355.06,159.20 355.05,159.60 355.04,160.00 355.04,160.39 355.03,160.79 355.02,161.19 355.02,161.58 355.01,161.98 355.01,162.38 355.01,162.78 355.00,163.17 355.00,163.57 355.00,163.97 354.99,164.36 354.99,164.76 354.99,165.16 354.99,165.55 354.99,165.95 354.99,166.35 354.99,166.74 354.99,167.14 354.99,167.54 354.99,167.93 354.99,168.33 354.99,168.73 354.99,169.12 354.99,169.52 354.98,169.92 354.98,170.31 354.98,170.71 354.98,171.11 354.98,171.50 354.98,171.90 354.98,172.30 354.98,172.69 354.98,173.09 354.98,173.49 354.98,173.89 354.98,174.28 354.98,174.68 354.98,175.08 354.98,175.47 354.98,175.87 354.98,176.27 354.98,176.66 354.98,177.06 354.98,177.46 354.98,177.85 354.98,178.25 354.98,178.65 354.98,179.04 354.98,179.44 354.98,179.84 354.98,180.23 354.98,180.63 354.98,181.03 354.98,181.42 354.98,181.82 354.98,182.22 354.98,182.61 354.98,183.01 354.98,183.41 354.98,183.80 354.98,184.20 354.98,184.60 354.98,185.00 354.98,185.39 354.98,185.79 354.98,186.19 354.98,186.58 354.98,186.98 354.98,187.38 354.98,187.77 354.98,188.17 354.98,188.57 354.98,188.96 354.98,189.36 354.98,189.76 354.98,190.15 354.98,190.55 354.98,190.95 354.98,191.34 354.98,191.74 354.98,192.14 354.98,192.53 354.98,192.93 354.98,193.33 354.98,193.72 354.98,194.12 354.98,194.52 354.99,194.92 354.99,195.31 354.99,195.71 354.99,196.11 354.99,196.50 354.99,196.90 354.99,197.30 354.99,197.69 354.99,198.09 354.99,198.49 354.99,198.88 354.99,199.28 354.99,199.68 354.99,200.07 355.00,200.47 355.00,200.87 355.00,201.26 355.00,201.66 355.01,202.06 355.01,202.45 355.01,202.85 355.02,203.25 355.02,203.64 355.03,204.04 355.04,204.44 355.05,204.83 355.05,205.23 355.06,205.63 355.07,206.03 355.08,206.42 355.10,206.82 355.11,207.22 355.12,207.61 355.14,208.01 355.15,208.41 355.17,208.80 355.19,209.20 355.21,209.60 355.23,209.99 355.25,210.39 355.27,210.79 355.29,211.18 355.31,211.58 355.33,211.98 355.35,212.37 355.37,212.77 355.39,213.17 355.41,213.56 355.43,213.96 355.45,214.36 355.46,214.75 355.48,215.15 355.49,215.55 355.50,215.95 355.51,216.34 355.52,216.74 355.53,217.14 355.53,217.53 355.53,217.93 355.53,218.33 355.53,218.72 355.53,219.12 355.52,219.52 355.51,219.91 355.50,220.31 355.49,220.71 355.47,221.10 355.46,221.50 355.44,221.90 355.42,222.29 355.40,222.69 355.38,223.09 355.36,223.48 355.34,223.88 355.32,224.28 355.30,224.67 355.28,225.07 355.26,225.47 355.24,225.86 355.22,226.26 355.20,226.66 355.18,227.06 355.17,227.45 355.15,227.85 355.13,228.25 355.12,228.64 355.11,229.04 355.09,229.44 355.08,229.83 355.07,230.23 355.06,230.63 355.05,231.02 355.04,231.42 355.04,231.82 355.03,232.21 355.02,232.61 355.02,233.01 355.01,233.40 355.01,233.80 355.01,234.20 355.00,234.59 355.00,234.99 355.00,235.39 355.00,235.78 354.99,236.18 354.99,236.58 354.99,236.98 354.98,236.98 "
         style="stroke-width: 0.85; stroke-linecap: butt; fill: #33A02C;"
         id="polygon17" />
    </g>
    <g
       clip-path="url(#cpMC4wMHw0MzIuMDB8MC4wMHwyODguMDA=)"
       id="g25">
      <text
         x="238.25"
         y="278.07999"
         text-anchor="middle"
         style="font-weight:bold;font-size:14px;font-family:Arial"
         textLength="72.300003"
         lengthAdjust="spacingAndGlyphs"
         id="text24" />
      <text
         xml:space="preserve"
         style="font-size:12px;line-height:normal;font-family:Arial;-inkscape-font-specification:Arial;text-align:center;text-decoration-color:#000000;writing-mode:lr-tb;direction:ltr;text-anchor:middle;white-space:pre;fill:#000000;stroke:#020202;stroke-width:0.409;stroke-opacity:0.961538"
         x="-143.23253"
         y="15.679569"
         id="text1"
         transform="rotate(-90)"><tspan
           sodipodi:role="line"
           id="tspan1"
           style="font-size:12px;stroke-width:0.409"
           x="-143.23253"
           y="15.679569">Heterozygosity rate</tspan></text>
      <text
         xml:space="preserve"
         style="font-size:12px;line-height:normal;font-family:Arial;-inkscape-font-specification:Arial;text-align:center;text-decoration-color:#000000;writing-mode:lr-tb;direction:ltr;text-anchor:middle;white-space:pre;fill:#000000;stroke:#020202;stroke-width:0.409;stroke-opacity:0.961538"
         x="235.96599"
         y="279.93503"
         id="text1-4"><tspan
           sodipodi:role="line"
           id="tspan1-8"
           style="font-size:12px;stroke-width:0.409"
           x="235.96599"
           y="279.93503">Population</tspan></text>
      <text
         xml:space="preserve"
         style="font-size:8px;line-height:normal;font-family:Arial;-inkscape-font-specification:Arial;text-align:center;text-decoration-color:#000000;writing-mode:lr-tb;direction:ltr;text-anchor:middle;white-space:pre;fill:#000000;stroke:#020202;stroke-width:0.409;stroke-opacity:0.961538"
         x="356.36157"
         y="261.42834"
         id="text1-4-4"><tspan
           sodipodi:role="line"
           id="tspan1-8-8"
           style="font-size:8px;stroke-width:0.409"
           x="356.36157"
           y="261.42834">GxR</tspan></text>
      <text
         xml:space="preserve"
         style="font-size:8px;line-height:normal;font-family:Arial;-inkscape-font-specification:Arial;text-align:center;text-decoration-color:#000000;writing-mode:lr-tb;direction:ltr;text-anchor:middle;white-space:pre;fill:#000000;stroke:#020202;stroke-width:0.409;stroke-opacity:0.961538"
         x="237.43187"
         y="262.05307"
         id="text1-4-4-4"><tspan
           sodipodi:role="line"
           id="tspan1-8-8-5"
           style="font-size:8px;stroke-width:0.409"
           x="237.43187"
           y="262.05307">PxA</tspan></text>
      <text
         xml:space="preserve"
         style="font-size:8px;line-height:normal;font-family:Arial;-inkscape-font-specification:Arial;text-align:center;text-decoration-color:#000000;writing-mode:lr-tb;direction:ltr;text-anchor:middle;white-space:pre;fill:#000000;stroke:#020202;stroke-width:0.409;stroke-opacity:0.961538"
         x="121.86566"
         y="261.30942"
         id="text1-4-4-4-7"><tspan
           sodipodi:role="line"
           id="tspan1-8-8-5-1"
           style="font-style:normal;font-variant:normal;font-weight:normal;font-stretch:normal;font-size:8px;font-family:Arial;-inkscape-font-specification:Arial;stroke-width:0.409"
           x="121.86566"
           y="261.30942">PxW</tspan></text>
      <text
         xml:space="preserve"
         style="font-size:8px;line-height:normal;font-family:Arial;-inkscape-font-specification:Arial;text-align:center;text-decoration-color:#000000;writing-mode:lr-tb;direction:ltr;text-anchor:middle;white-space:pre;fill:#000000;stroke:#020202;stroke-width:0.409;stroke-opacity:0.961538"
         x="32.977757"
         y="201.62225"
         id="text1-4-4-4-7-2"><tspan
           sodipodi:role="line"
           id="tspan1-8-8-5-1-7"
           style="font-style:normal;font-variant:normal;font-weight:normal;font-stretch:normal;font-size:8px;font-family:Arial;-inkscape-font-specification:Arial;stroke-width:0.409"
           x="32.977757"
           y="201.62225">0.20</tspan></text>
      <text
         xml:space="preserve"
         style="font-size:8px;line-height:normal;font-family:Arial;-inkscape-font-specification:Arial;text-align:center;text-decoration-color:#000000;writing-mode:lr-tb;direction:ltr;text-anchor:middle;white-space:pre;fill:#000000;stroke:#020202;stroke-width:0.409;stroke-opacity:0.961538"
         x="32.97538"
         y="149.87805"
         id="text1-4-4-4-7-2-4"><tspan
           sodipodi:role="line"
           id="tspan1-8-8-5-1-7-2"
           style="font-style:normal;font-variant:normal;font-weight:normal;font-stretch:normal;font-size:8px;font-family:Arial;-inkscape-font-specification:Arial;stroke-width:0.409"
           x="32.97538"
           y="149.87805">0.25</tspan></text>
      <text
         xml:space="preserve"
         style="font-size:8px;line-height:normal;font-family:Arial;-inkscape-font-specification:Arial;text-align:center;text-decoration-color:#000000;writing-mode:lr-tb;direction:ltr;text-anchor:middle;white-space:pre;fill:#000000;stroke:#020202;stroke-width:0.409;stroke-opacity:0.961538"
         x="34.089874"
         y="98.154869"
         id="text1-4-4-4-7-2-4-2"><tspan
           sodipodi:role="line"
           id="tspan1-8-8-5-1-7-2-1"
           style="font-style:normal;font-variant:normal;font-weight:normal;font-stretch:normal;font-size:8px;font-family:Arial;-inkscape-font-specification:Arial;stroke-width:0.409"
           x="34.089874"
           y="98.154869">0.30</tspan></text>
      <text
         xml:space="preserve"
         style="font-size:8px;line-height:normal;font-family:Arial;-inkscape-font-specification:Arial;text-align:center;text-decoration-color:#000000;writing-mode:lr-tb;direction:ltr;text-anchor:middle;white-space:pre;fill:#000000;stroke:#020202;stroke-width:0.409;stroke-opacity:0.961538"
         x="34.62067"
         y="46.222618"
         id="text1-4-4-4-7-2-4-2-5"><tspan
           sodipodi:role="line"
           id="tspan1-8-8-5-1-7-2-1-7"
           style="font-style:normal;font-variant:normal;font-weight:normal;font-stretch:normal;font-size:8px;font-family:Arial;-inkscape-font-specification:Arial;stroke-width:0.409"
           x="34.62067"
           y="46.222618">0.35</tspan></text>
    </g>
  </g>
</svg>
